<mxfile host="app.diagrams.net" modified="2024-03-12T04:07:03.880Z" agent="Mozilla/5.0 (Macintosh; Intel Mac OS X 10_15_7) AppleWebKit/605.1.15 (KHTML, like Gecko) Version/17.3.1 Safari/605.1.15" etag="0GiRxmZhjV53XS4jpLZK" version="24.0.5" type="device">
  <diagram name="Page-1" id="JJM-SoBvck4Lo2qMM3d7">
    <mxGraphModel dx="4104" dy="1371" grid="1" gridSize="10" guides="1" tooltips="1" connect="1" arrows="1" fold="1" page="0" pageScale="1" pageWidth="827" pageHeight="1169" math="0" shadow="0">
      <root>
        <mxCell id="0" />
        <mxCell id="1" parent="0" />
        <mxCell id="sQ7uq_kDmgjTIrpxJaOo-1" value="&lt;font face=&quot;Georgia&quot;&gt;MAIN&lt;/font&gt;" style="rounded=0;whiteSpace=wrap;html=1;" parent="1" vertex="1">
          <mxGeometry x="870" y="-120" width="120" height="60" as="geometry" />
        </mxCell>
        <mxCell id="7__NyJGFdE1q7RsElTSV-1" value="&lt;font face=&quot;Georgia&quot;&gt;LOGIN/REGISTER&lt;/font&gt;" style="rounded=0;whiteSpace=wrap;html=1;" parent="1" vertex="1">
          <mxGeometry x="-950" y="420" width="120" height="60" as="geometry" />
        </mxCell>
        <mxCell id="7__NyJGFdE1q7RsElTSV-6" value="" style="endArrow=none;html=1;rounded=0;elbow=vertical;entryX=0;entryY=0.25;entryDx=0;entryDy=0;exitX=0.417;exitY=0.017;exitDx=0;exitDy=0;exitPerimeter=0;" parent="1" source="7__NyJGFdE1q7RsElTSV-1" target="sQ7uq_kDmgjTIrpxJaOo-1" edge="1">
          <mxGeometry width="50" height="50" relative="1" as="geometry">
            <mxPoint x="150" y="380" as="sourcePoint" />
            <mxPoint x="200" y="330" as="targetPoint" />
          </mxGeometry>
        </mxCell>
        <mxCell id="7__NyJGFdE1q7RsElTSV-7" value="&lt;font style=&quot;font-size: 14px;&quot; face=&quot;Georgia&quot;&gt;Get User Details&lt;/font&gt;" style="rounded=0;whiteSpace=wrap;html=1;" parent="1" vertex="1">
          <mxGeometry x="-1730" y="770" width="150" height="60" as="geometry" />
        </mxCell>
        <mxCell id="7__NyJGFdE1q7RsElTSV-9" value="" style="endArrow=none;html=1;rounded=0;exitX=0.5;exitY=0;exitDx=0;exitDy=0;entryX=0.5;entryY=1;entryDx=0;entryDy=0;" parent="1" source="7__NyJGFdE1q7RsElTSV-7" target="7__NyJGFdE1q7RsElTSV-1" edge="1">
          <mxGeometry width="50" height="50" relative="1" as="geometry">
            <mxPoint x="-1110" y="700" as="sourcePoint" />
            <mxPoint x="-940" y="530" as="targetPoint" />
            <Array as="points">
              <mxPoint x="-1310" y="630" />
              <mxPoint x="-1210" y="590" />
            </Array>
          </mxGeometry>
        </mxCell>
        <mxCell id="7__NyJGFdE1q7RsElTSV-10" value="&lt;font face=&quot;Georgia&quot;&gt;Register New User&lt;/font&gt;" style="rounded=0;whiteSpace=wrap;html=1;" parent="1" vertex="1">
          <mxGeometry x="-1030" y="802.58" width="150" height="60" as="geometry" />
        </mxCell>
        <mxCell id="7__NyJGFdE1q7RsElTSV-11" value="&lt;font face=&quot;Georgia&quot;&gt;Check Access Level&lt;/font&gt;" style="rounded=0;whiteSpace=wrap;html=1;" parent="1" vertex="1">
          <mxGeometry x="-610" y="805" width="150" height="60" as="geometry" />
        </mxCell>
        <mxCell id="7__NyJGFdE1q7RsElTSV-12" value="" style="endArrow=none;html=1;rounded=0;entryX=0.5;entryY=1;entryDx=0;entryDy=0;exitX=0.5;exitY=0;exitDx=0;exitDy=0;" parent="1" source="7__NyJGFdE1q7RsElTSV-10" target="7__NyJGFdE1q7RsElTSV-1" edge="1">
          <mxGeometry width="50" height="50" relative="1" as="geometry">
            <mxPoint x="-905" y="720" as="sourcePoint" />
            <mxPoint x="-855" y="670" as="targetPoint" />
          </mxGeometry>
        </mxCell>
        <mxCell id="7__NyJGFdE1q7RsElTSV-13" value="" style="endArrow=none;html=1;rounded=0;entryX=0.5;entryY=0;entryDx=0;entryDy=0;exitX=0.5;exitY=1;exitDx=0;exitDy=0;" parent="1" source="7__NyJGFdE1q7RsElTSV-1" target="7__NyJGFdE1q7RsElTSV-11" edge="1">
          <mxGeometry width="50" height="50" relative="1" as="geometry">
            <mxPoint x="-780" y="530" as="sourcePoint" />
            <mxPoint x="-730" y="480" as="targetPoint" />
          </mxGeometry>
        </mxCell>
        <mxCell id="7__NyJGFdE1q7RsElTSV-14" value="&lt;font style=&quot;font-size: 14px;&quot; face=&quot;Georgia&quot;&gt;Compose in Database&lt;/font&gt;" style="rounded=1;whiteSpace=wrap;html=1;" parent="1" vertex="1">
          <mxGeometry x="-2040" y="960" width="120" height="60" as="geometry" />
        </mxCell>
        <mxCell id="7__NyJGFdE1q7RsElTSV-15" value="" style="endArrow=none;html=1;rounded=0;entryX=0.45;entryY=1.033;entryDx=0;entryDy=0;entryPerimeter=0;exitX=0.5;exitY=0;exitDx=0;exitDy=0;" parent="1" source="7__NyJGFdE1q7RsElTSV-14" target="7__NyJGFdE1q7RsElTSV-7" edge="1">
          <mxGeometry width="50" height="50" relative="1" as="geometry">
            <mxPoint x="-1720" y="910" as="sourcePoint" />
            <mxPoint x="-1670" y="860" as="targetPoint" />
          </mxGeometry>
        </mxCell>
        <mxCell id="7__NyJGFdE1q7RsElTSV-16" value="" style="html=1;shadow=0;dashed=0;align=center;verticalAlign=middle;shape=mxgraph.arrows2.uTurnArrow;dy=10.33;arrowHead=50;dx2=30.33;rotation=-90;" parent="1" vertex="1">
          <mxGeometry x="-1680" y="830" width="100" height="100" as="geometry" />
        </mxCell>
        <mxCell id="7__NyJGFdE1q7RsElTSV-17" value="&lt;font style=&quot;font-size: 14px;&quot; face=&quot;Georgia&quot;&gt;Wrong credentials&lt;/font&gt;" style="text;html=1;align=center;verticalAlign=middle;whiteSpace=wrap;rounded=0;" parent="1" vertex="1">
          <mxGeometry x="-1650" y="940" width="80" height="30" as="geometry" />
        </mxCell>
        <mxCell id="7__NyJGFdE1q7RsElTSV-18" value="" style="endArrow=open;startArrow=oval;endFill=0;startFill=0;endSize=8;html=1;rounded=0;" parent="1" edge="1">
          <mxGeometry width="160" relative="1" as="geometry">
            <mxPoint x="-1800" y="850" as="sourcePoint" />
            <mxPoint x="-1960" y="930" as="targetPoint" />
            <Array as="points" />
          </mxGeometry>
        </mxCell>
        <mxCell id="7__NyJGFdE1q7RsElTSV-19" value="&lt;font style=&quot;font-size: 14px;&quot; face=&quot;Georgia&quot;&gt;Username , Password&lt;/font&gt;" style="text;html=1;align=center;verticalAlign=middle;whiteSpace=wrap;rounded=0;rotation=-25;" parent="1" vertex="1">
          <mxGeometry x="-1410.0000000000002" y="560" width="130" height="31.76" as="geometry" />
        </mxCell>
        <mxCell id="7__NyJGFdE1q7RsElTSV-25" value="&lt;font style=&quot;font-size: 14px;&quot; face=&quot;Georgia&quot;&gt;Login Details are again passed&lt;/font&gt;" style="text;html=1;align=center;verticalAlign=middle;whiteSpace=wrap;rounded=0;rotation=-25;" parent="1" vertex="1">
          <mxGeometry x="-1960.0000000000002" y="850" width="130" height="31.76" as="geometry" />
        </mxCell>
        <mxCell id="7__NyJGFdE1q7RsElTSV-26" value="" style="endArrow=open;startArrow=oval;endFill=0;startFill=0;endSize=8;html=1;rounded=0;" parent="1" edge="1">
          <mxGeometry width="160" relative="1" as="geometry">
            <mxPoint x="-1230" y="570" as="sourcePoint" />
            <mxPoint x="-1410" y="650" as="targetPoint" />
            <Array as="points" />
          </mxGeometry>
        </mxCell>
        <mxCell id="yQK2qfJtW_lse_zrFERw-1" value="&lt;font style=&quot;font-size: 14px;&quot; face=&quot;Georgia&quot;&gt;New Username,&lt;br&gt;&amp;nbsp;NewUserPassword,&lt;br&gt;NewUserAccessLevel&lt;/font&gt;" style="text;html=1;align=center;verticalAlign=middle;whiteSpace=wrap;rounded=0;rotation=0;" parent="1" vertex="1">
          <mxGeometry x="-1190" y="600" width="288.97" height="100" as="geometry" />
        </mxCell>
        <mxCell id="yQK2qfJtW_lse_zrFERw-2" value="&lt;font face=&quot;Georgia&quot;&gt;Classify User&lt;/font&gt;" style="rounded=0;whiteSpace=wrap;html=1;" parent="1" vertex="1">
          <mxGeometry x="880" y="80" width="120" height="60" as="geometry" />
        </mxCell>
        <mxCell id="yQK2qfJtW_lse_zrFERw-3" value="" style="rhombus;whiteSpace=wrap;html=1;" parent="1" vertex="1">
          <mxGeometry x="900" y="140" width="80" height="80" as="geometry" />
        </mxCell>
        <mxCell id="YlkCHHWBlgFnMPXk_ph4-1" value="&lt;font style=&quot;font-size: 14px;&quot; face=&quot;Georgia&quot;&gt;View Student Dashboard&lt;/font&gt;" style="rounded=0;whiteSpace=wrap;html=1;" parent="1" vertex="1">
          <mxGeometry x="60" y="750" width="120" height="60" as="geometry" />
        </mxCell>
        <mxCell id="YlkCHHWBlgFnMPXk_ph4-2" value="&lt;font style=&quot;font-size: 14px;&quot; face=&quot;Georgia&quot;&gt;View Mess Committee Dashboard&lt;/font&gt;" style="rounded=0;whiteSpace=wrap;html=1;" parent="1" vertex="1">
          <mxGeometry x="1510" y="782.58" width="120" height="60" as="geometry" />
        </mxCell>
        <mxCell id="YlkCHHWBlgFnMPXk_ph4-3" value="&lt;font face=&quot;Georgia&quot;&gt;View Faculty Dashboard&lt;/font&gt;" style="rounded=0;whiteSpace=wrap;html=1;" parent="1" vertex="1">
          <mxGeometry x="3560" y="560" width="120" height="60" as="geometry" />
        </mxCell>
        <mxCell id="YlkCHHWBlgFnMPXk_ph4-4" value="" style="endArrow=open;startArrow=oval;endFill=0;startFill=0;endSize=8;html=1;rounded=0;" parent="1" edge="1">
          <mxGeometry width="160" relative="1" as="geometry">
            <mxPoint x="-1230" y="570" as="sourcePoint" />
            <mxPoint x="-1410" y="650" as="targetPoint" />
            <Array as="points" />
          </mxGeometry>
        </mxCell>
        <mxCell id="yQK2qfJtW_lse_zrFERw-4" value="" style="endArrow=none;html=1;rounded=0;exitX=0.417;exitY=0;exitDx=0;exitDy=0;exitPerimeter=0;entryX=1;entryY=0.5;entryDx=0;entryDy=0;" parent="1" source="YlkCHHWBlgFnMPXk_ph4-3" target="yQK2qfJtW_lse_zrFERw-3" edge="1">
          <mxGeometry width="50" height="50" relative="1" as="geometry">
            <mxPoint x="1190" y="250" as="sourcePoint" />
            <mxPoint x="1240" y="200" as="targetPoint" />
          </mxGeometry>
        </mxCell>
        <mxCell id="YlkCHHWBlgFnMPXk_ph4-7" value="" style="endArrow=none;html=1;rounded=0;entryX=0;entryY=0.5;entryDx=0;entryDy=0;exitX=0.75;exitY=0;exitDx=0;exitDy=0;" parent="1" source="YlkCHHWBlgFnMPXk_ph4-1" target="yQK2qfJtW_lse_zrFERw-3" edge="1">
          <mxGeometry width="50" height="50" relative="1" as="geometry">
            <mxPoint x="735" y="480" as="sourcePoint" />
            <mxPoint x="910" y="190" as="targetPoint" />
          </mxGeometry>
        </mxCell>
        <mxCell id="yQK2qfJtW_lse_zrFERw-5" value="" style="endArrow=none;html=1;rounded=0;exitX=0.408;exitY=-0.017;exitDx=0;exitDy=0;exitPerimeter=0;entryX=0.5;entryY=1;entryDx=0;entryDy=0;" parent="1" source="YlkCHHWBlgFnMPXk_ph4-2" target="yQK2qfJtW_lse_zrFERw-3" edge="1">
          <mxGeometry width="50" height="50" relative="1" as="geometry">
            <mxPoint x="960" y="330" as="sourcePoint" />
            <mxPoint x="960" y="260" as="targetPoint" />
          </mxGeometry>
        </mxCell>
        <mxCell id="YlkCHHWBlgFnMPXk_ph4-6" value="" style="endArrow=open;startArrow=oval;endFill=0;startFill=0;endSize=8;html=1;rounded=0;" parent="1" edge="1">
          <mxGeometry width="160" relative="1" as="geometry">
            <mxPoint x="680" y="310" as="sourcePoint" />
            <mxPoint x="370" y="530" as="targetPoint" />
            <Array as="points" />
          </mxGeometry>
        </mxCell>
        <mxCell id="YlkCHHWBlgFnMPXk_ph4-9" value="" style="endArrow=open;startArrow=oval;endFill=0;startFill=0;endSize=8;html=1;rounded=0;" parent="1" edge="1">
          <mxGeometry width="160" relative="1" as="geometry">
            <mxPoint x="1430" y="220" as="sourcePoint" />
            <mxPoint x="1840" y="280" as="targetPoint" />
            <Array as="points" />
          </mxGeometry>
        </mxCell>
        <mxCell id="YlkCHHWBlgFnMPXk_ph4-8" value="" style="endArrow=open;startArrow=oval;endFill=0;startFill=0;endSize=8;html=1;rounded=0;" parent="1" edge="1">
          <mxGeometry width="160" relative="1" as="geometry">
            <mxPoint x="1000" y="310" as="sourcePoint" />
            <mxPoint x="1250" y="560" as="targetPoint" />
            <Array as="points" />
          </mxGeometry>
        </mxCell>
        <mxCell id="yQK2qfJtW_lse_zrFERw-10" value="" style="endArrow=none;html=1;rounded=0;exitX=0.5;exitY=0;exitDx=0;exitDy=0;entryX=0.5;entryY=1;entryDx=0;entryDy=0;" parent="1" source="yQK2qfJtW_lse_zrFERw-7" target="YlkCHHWBlgFnMPXk_ph4-1" edge="1">
          <mxGeometry width="50" height="50" relative="1" as="geometry">
            <mxPoint x="50" y="940" as="sourcePoint" />
            <mxPoint x="100" y="890" as="targetPoint" />
          </mxGeometry>
        </mxCell>
        <mxCell id="yQK2qfJtW_lse_zrFERw-11" value="" style="endArrow=none;html=1;rounded=0;exitX=0.5;exitY=0;exitDx=0;exitDy=0;entryX=0.5;entryY=1;entryDx=0;entryDy=0;" parent="1" source="yQK2qfJtW_lse_zrFERw-6" target="YlkCHHWBlgFnMPXk_ph4-1" edge="1">
          <mxGeometry width="50" height="50" relative="1" as="geometry">
            <mxPoint x="270" y="940" as="sourcePoint" />
            <mxPoint x="210" y="870" as="targetPoint" />
          </mxGeometry>
        </mxCell>
        <mxCell id="yQK2qfJtW_lse_zrFERw-12" value="&lt;font face=&quot;Georgia&quot;&gt;Store &amp;nbsp;Complaint in&amp;nbsp;DB&lt;/font&gt;" style="shape=process;whiteSpace=wrap;html=1;backgroundOutline=1;" parent="1" vertex="1">
          <mxGeometry x="-10" y="1270" width="120" height="60" as="geometry" />
        </mxCell>
        <mxCell id="yQK2qfJtW_lse_zrFERw-13" value="" style="endArrow=none;html=1;rounded=0;entryX=0.5;entryY=1;entryDx=0;entryDy=0;exitX=0.5;exitY=0;exitDx=0;exitDy=0;" parent="1" source="yQK2qfJtW_lse_zrFERw-12" target="yQK2qfJtW_lse_zrFERw-7" edge="1">
          <mxGeometry width="50" height="50" relative="1" as="geometry">
            <mxPoint y="1270" as="sourcePoint" />
            <mxPoint x="50" y="1220" as="targetPoint" />
          </mxGeometry>
        </mxCell>
        <mxCell id="YlkCHHWBlgFnMPXk_ph4-12" value="&lt;font style=&quot;font-size: 14px;&quot; face=&quot;Georgia&quot;&gt;Access Level:Login as Mess Committee&lt;/font&gt;" style="text;html=1;align=center;verticalAlign=middle;whiteSpace=wrap;rounded=0;rotation=50;" parent="1" vertex="1">
          <mxGeometry x="980" y="439.99999999999994" width="241.81" height="24.84" as="geometry" />
        </mxCell>
        <mxCell id="YlkCHHWBlgFnMPXk_ph4-14" value="Raise Query" style="rounded=0;whiteSpace=wrap;html=1;" parent="1" vertex="1">
          <mxGeometry x="1230" y="1112.58" width="120" height="60" as="geometry" />
        </mxCell>
        <mxCell id="YlkCHHWBlgFnMPXk_ph4-15" value="Processing of Complaints" style="rounded=0;whiteSpace=wrap;html=1;" parent="1" vertex="1">
          <mxGeometry x="1790" y="1112.58" width="120" height="60" as="geometry" />
        </mxCell>
        <mxCell id="yQK2qfJtW_lse_zrFERw-17" value="&lt;font style=&quot;font-size: 14px;&quot; face=&quot;Georgia&quot;&gt;Access Level: Login as Faculty&lt;/font&gt;" style="text;html=1;align=center;verticalAlign=middle;whiteSpace=wrap;rounded=0;rotation=10;" parent="1" vertex="1">
          <mxGeometry x="1520" y="210" width="241.81" height="24.84" as="geometry" />
        </mxCell>
        <mxCell id="yQK2qfJtW_lse_zrFERw-6" value="&lt;font style=&quot;font-size: 12px;&quot; face=&quot;Georgia&quot;&gt;View Complaint Status&lt;/font&gt;" style="rounded=0;whiteSpace=wrap;html=1;" parent="1" vertex="1">
          <mxGeometry x="380" y="980" width="120" height="60" as="geometry" />
        </mxCell>
        <mxCell id="yQK2qfJtW_lse_zrFERw-7" value="&lt;font style=&quot;font-size: 12px;&quot; face=&quot;Georgia&quot;&gt;Register Complaint&lt;/font&gt;" style="rounded=0;whiteSpace=wrap;html=1;" parent="1" vertex="1">
          <mxGeometry x="10" y="990" width="120" height="60" as="geometry" />
        </mxCell>
        <mxCell id="yQK2qfJtW_lse_zrFERw-19" value="&lt;font face=&quot;Georgia&quot;&gt;&lt;span style=&quot;font-size: 14px;&quot;&gt;User ID, Access Level&lt;br&gt;&lt;/span&gt;&lt;/font&gt;" style="text;html=1;align=center;verticalAlign=middle;whiteSpace=wrap;rounded=0;rotation=0;" parent="1" vertex="1">
          <mxGeometry x="920" y="-10" width="241.81" height="24.84" as="geometry" />
        </mxCell>
        <mxCell id="YlkCHHWBlgFnMPXk_ph4-18" value="" style="endArrow=none;html=1;rounded=0;exitX=0.5;exitY=0;exitDx=0;exitDy=0;entryX=0.5;entryY=1;entryDx=0;entryDy=0;" parent="1" source="YlkCHHWBlgFnMPXk_ph4-14" target="YlkCHHWBlgFnMPXk_ph4-2" edge="1">
          <mxGeometry width="50" height="50" relative="1" as="geometry">
            <mxPoint x="1300" y="1102.58" as="sourcePoint" />
            <mxPoint x="1519" y="848.58" as="targetPoint" />
          </mxGeometry>
        </mxCell>
        <mxCell id="yQK2qfJtW_lse_zrFERw-20" value="" style="endArrow=open;startArrow=oval;endFill=0;startFill=0;endSize=8;html=1;rounded=0;" parent="1" edge="1">
          <mxGeometry width="160" relative="1" as="geometry">
            <mxPoint x="970" y="-40" as="sourcePoint" />
            <mxPoint x="970" y="70" as="targetPoint" />
            <Array as="points">
              <mxPoint x="970" y="70" />
            </Array>
          </mxGeometry>
        </mxCell>
        <mxCell id="yQK2qfJtW_lse_zrFERw-9" value="" style="endArrow=none;html=1;rounded=0;entryX=0.5;entryY=1;entryDx=0;entryDy=0;exitX=0.5;exitY=0;exitDx=0;exitDy=0;" parent="1" source="yQK2qfJtW_lse_zrFERw-8" target="YlkCHHWBlgFnMPXk_ph4-1" edge="1">
          <mxGeometry width="50" height="50" relative="1" as="geometry">
            <mxPoint x="-230" y="960" as="sourcePoint" />
            <mxPoint x="-180" y="910" as="targetPoint" />
          </mxGeometry>
        </mxCell>
        <mxCell id="yQK2qfJtW_lse_zrFERw-8" value="&lt;font style=&quot;font-size: 12px;&quot; face=&quot;Georgia&quot;&gt;Print Complaint Logs/History&lt;/font&gt;" style="rounded=0;whiteSpace=wrap;html=1;" parent="1" vertex="1">
          <mxGeometry x="-310" y="990" width="120" height="60" as="geometry" />
        </mxCell>
        <mxCell id="yQK2qfJtW_lse_zrFERw-18" value="" style="endArrow=none;html=1;rounded=0;entryX=0.617;entryY=0.983;entryDx=0;entryDy=0;entryPerimeter=0;exitX=0.5;exitY=0;exitDx=0;exitDy=0;" parent="1" source="yQK2qfJtW_lse_zrFERw-2" target="sQ7uq_kDmgjTIrpxJaOo-1" edge="1">
          <mxGeometry width="50" height="50" relative="1" as="geometry">
            <mxPoint x="910" y="50" as="sourcePoint" />
            <mxPoint x="960" as="targetPoint" />
          </mxGeometry>
        </mxCell>
        <mxCell id="YlkCHHWBlgFnMPXk_ph4-19" value="" style="endArrow=none;html=1;rounded=0;exitX=0.575;exitY=-0.033;exitDx=0;exitDy=0;exitPerimeter=0;" parent="1" source="yQK2qfJtW_lse_zrFERw-22" edge="1">
          <mxGeometry width="50" height="50" relative="1" as="geometry">
            <mxPoint x="2280" y="1112.58" as="sourcePoint" />
            <mxPoint x="1570" y="842.58" as="targetPoint" />
          </mxGeometry>
        </mxCell>
        <mxCell id="yQK2qfJtW_lse_zrFERw-22" value="&lt;font face=&quot;Georgia&quot;&gt;Display Current Mess Menu&lt;/font&gt;" style="shape=process;whiteSpace=wrap;html=1;backgroundOutline=1;" parent="1" vertex="1">
          <mxGeometry x="2490" y="1132.58" width="120" height="60" as="geometry" />
        </mxCell>
        <mxCell id="YlkCHHWBlgFnMPXk_ph4-21" value="&lt;span style=&quot;color: rgb(0, 0, 0); font-family: Georgia; font-size: 12px; font-style: normal; font-variant-ligatures: normal; font-variant-caps: normal; font-weight: 400; letter-spacing: normal; orphans: 2; text-align: center; text-indent: 0px; text-transform: none; widows: 2; word-spacing: 0px; -webkit-text-stroke-width: 0px; white-space: normal; background-color: rgb(255, 255, 255); text-decoration-thickness: initial; text-decoration-style: initial; text-decoration-color: initial; display: inline !important; float: none;&quot;&gt;Complaint Database&lt;/span&gt;" style="rounded=1;whiteSpace=wrap;html=1;" parent="1" vertex="1">
          <mxGeometry x="980" y="1452.58" width="120" height="60" as="geometry" />
        </mxCell>
        <mxCell id="yQK2qfJtW_lse_zrFERw-23" value="" style="endArrow=none;html=1;rounded=0;exitX=0.5;exitY=0;exitDx=0;exitDy=0;entryX=0.5;entryY=1;entryDx=0;entryDy=0;" parent="1" source="YlkCHHWBlgFnMPXk_ph4-15" target="YlkCHHWBlgFnMPXk_ph4-2" edge="1">
          <mxGeometry width="50" height="50" relative="1" as="geometry">
            <mxPoint x="2030" y="1112.58" as="sourcePoint" />
            <mxPoint x="1600" y="852.58" as="targetPoint" />
          </mxGeometry>
        </mxCell>
        <mxCell id="YlkCHHWBlgFnMPXk_ph4-10" value="&lt;font style=&quot;font-size: 14px;&quot; face=&quot;Georgia&quot;&gt;Access Level: Login as Student&lt;/font&gt;" style="text;html=1;align=center;verticalAlign=middle;whiteSpace=wrap;rounded=0;rotation=-35;" parent="1" vertex="1">
          <mxGeometry x="373.44" y="410.73" width="241.81" height="22.11" as="geometry" />
        </mxCell>
        <mxCell id="YlkCHHWBlgFnMPXk_ph4-22" value="" style="endArrow=open;startArrow=oval;endFill=0;startFill=0;endSize=8;html=1;rounded=0;" parent="1" edge="1">
          <mxGeometry width="160" relative="1" as="geometry">
            <mxPoint x="1460" y="932.58" as="sourcePoint" />
            <mxPoint x="1330" y="1052.58" as="targetPoint" />
            <Array as="points" />
          </mxGeometry>
        </mxCell>
        <mxCell id="YlkCHHWBlgFnMPXk_ph4-23" value="&lt;font face=&quot;Georgia&quot;&gt;&lt;span style=&quot;font-size: 14px;&quot;&gt;Query&lt;/span&gt;&lt;/font&gt;" style="text;html=1;align=center;verticalAlign=middle;whiteSpace=wrap;rounded=0;rotation=-45;" parent="1" vertex="1">
          <mxGeometry x="1259.1" y="976.5200000000001" width="241.81" height="22.11" as="geometry" />
        </mxCell>
        <mxCell id="yQK2qfJtW_lse_zrFERw-24" value="" style="endArrow=none;html=1;rounded=0;entryX=0;entryY=0.5;entryDx=0;entryDy=0;exitX=0.5;exitY=0;exitDx=0;exitDy=0;" parent="1" source="yQK2qfJtW_lse_zrFERw-25" target="YlkCHHWBlgFnMPXk_ph4-3" edge="1">
          <mxGeometry width="50" height="50" relative="1" as="geometry">
            <mxPoint x="3010" y="1030" as="sourcePoint" />
            <mxPoint x="3360" y="1060" as="targetPoint" />
          </mxGeometry>
        </mxCell>
        <mxCell id="yQK2qfJtW_lse_zrFERw-25" value="&lt;font face=&quot;Georgia&quot;&gt;Display Current Mess Menu&lt;/font&gt;" style="shape=process;whiteSpace=wrap;html=1;backgroundOutline=1;" parent="1" vertex="1">
          <mxGeometry x="2920" y="1050" width="120" height="60" as="geometry" />
        </mxCell>
        <mxCell id="YlkCHHWBlgFnMPXk_ph4-36" value="&lt;font face=&quot;Georgia&quot;&gt;&lt;span style=&quot;font-size: 14px;&quot;&gt;Filtering Details&lt;/span&gt;&lt;/font&gt;" style="text;html=1;align=center;verticalAlign=middle;whiteSpace=wrap;rounded=0;rotation=-45;" parent="1" vertex="1">
          <mxGeometry x="999.25" y="1272.8899999999999" width="241.81" height="20" as="geometry" />
        </mxCell>
        <mxCell id="yQK2qfJtW_lse_zrFERw-26" value="" style="rhombus;whiteSpace=wrap;html=1;" parent="1" vertex="1">
          <mxGeometry x="3590" y="620" width="80" height="80" as="geometry" />
        </mxCell>
        <mxCell id="YlkCHHWBlgFnMPXk_ph4-38" value="" style="endArrow=open;startArrow=oval;endFill=0;startFill=0;endSize=8;html=1;rounded=0;" parent="1" edge="1">
          <mxGeometry width="160" relative="1" as="geometry">
            <mxPoint x="1200" y="1232.58" as="sourcePoint" />
            <mxPoint x="1090" y="1352.58" as="targetPoint" />
            <Array as="points" />
          </mxGeometry>
        </mxCell>
        <mxCell id="yQK2qfJtW_lse_zrFERw-32" value="" style="endArrow=none;html=1;rounded=0;entryX=0.5;entryY=1;entryDx=0;entryDy=0;exitX=0.5;exitY=0;exitDx=0;exitDy=0;" parent="1" source="yQK2qfJtW_lse_zrFERw-28" target="yQK2qfJtW_lse_zrFERw-26" edge="1">
          <mxGeometry width="50" height="50" relative="1" as="geometry">
            <mxPoint x="3600" y="980" as="sourcePoint" />
            <mxPoint x="3650" y="930" as="targetPoint" />
          </mxGeometry>
        </mxCell>
        <mxCell id="yQK2qfJtW_lse_zrFERw-28" value="&lt;font style=&quot;font-size: 14px;&quot; face=&quot;Georgia&quot;&gt;Processing of &amp;nbsp;unresolved complaints&lt;/font&gt;" style="rounded=0;whiteSpace=wrap;html=1;" parent="1" vertex="1">
          <mxGeometry x="3560" y="1060" width="120" height="60" as="geometry" />
        </mxCell>
        <mxCell id="yQK2qfJtW_lse_zrFERw-33" value="&lt;font style=&quot;font-size: 14px;&quot; face=&quot;Georgia&quot;&gt;Want to edit Menu&lt;/font&gt;" style="text;html=1;align=center;verticalAlign=middle;whiteSpace=wrap;rounded=0;rotation=-55;" parent="1" vertex="1">
          <mxGeometry x="3300" y="830.0000000000001" width="241.81" height="24.84" as="geometry" />
        </mxCell>
        <mxCell id="yQK2qfJtW_lse_zrFERw-37" value="&lt;font style=&quot;font-size: 14px;&quot; face=&quot;Georgia&quot;&gt;Retrieve Complaints on priority&lt;/font&gt;" style="rounded=0;whiteSpace=wrap;html=1;" parent="1" vertex="1">
          <mxGeometry x="3560" y="1260" width="120" height="60" as="geometry" />
        </mxCell>
        <mxCell id="yQK2qfJtW_lse_zrFERw-34" value="&lt;font face=&quot;Georgia&quot;&gt;&lt;span style=&quot;font-size: 14px;&quot;&gt;Want to Schedule Mess Meet&lt;/span&gt;&lt;/font&gt;" style="text;html=1;align=center;verticalAlign=middle;whiteSpace=wrap;rounded=0;rotation=30;" parent="1" vertex="1">
          <mxGeometry x="3839.1" y="785.1600000000001" width="241.81" height="24.84" as="geometry" />
        </mxCell>
        <mxCell id="yQK2qfJtW_lse_zrFERw-29" value="&lt;font style=&quot;font-size: 14px;&quot; face=&quot;Georgia&quot;&gt;Generate Meeting Details&lt;/font&gt;" style="rounded=0;whiteSpace=wrap;html=1;" parent="1" vertex="1">
          <mxGeometry x="4320" y="1060" width="120" height="60" as="geometry" />
        </mxCell>
        <mxCell id="YlkCHHWBlgFnMPXk_ph4-24" value="" style="html=1;verticalAlign=bottom;startArrow=circle;startFill=1;endArrow=open;startSize=6;endSize=8;curved=0;rounded=0;" parent="1" edge="1">
          <mxGeometry width="80" relative="1" as="geometry">
            <mxPoint x="1080" y="1400" as="sourcePoint" />
            <mxPoint x="1200" y="1282.58" as="targetPoint" />
          </mxGeometry>
        </mxCell>
        <mxCell id="yQK2qfJtW_lse_zrFERw-27" value="&lt;font style=&quot;font-size: 14px;&quot; face=&quot;Georgia&quot;&gt;Edit Menu&lt;/font&gt;" style="rounded=0;whiteSpace=wrap;html=1;" parent="1" vertex="1">
          <mxGeometry x="3270" y="1050" width="120" height="60" as="geometry" />
        </mxCell>
        <mxCell id="YlkCHHWBlgFnMPXk_ph4-29" value="&lt;font face=&quot;Georgia&quot;&gt;&lt;span style=&quot;font-size: 14px;&quot;&gt;Result Shown&lt;/span&gt;&lt;/font&gt;" style="text;html=1;align=center;verticalAlign=middle;whiteSpace=wrap;rounded=0;rotation=-50;" parent="1" vertex="1">
          <mxGeometry x="1060" y="1342.58" width="220" height="20" as="geometry" />
        </mxCell>
        <mxCell id="yQK2qfJtW_lse_zrFERw-30" value="" style="endArrow=none;html=1;rounded=0;entryX=0;entryY=0.5;entryDx=0;entryDy=0;exitX=0.5;exitY=0;exitDx=0;exitDy=0;" parent="1" source="yQK2qfJtW_lse_zrFERw-27" target="yQK2qfJtW_lse_zrFERw-26" edge="1">
          <mxGeometry width="50" height="50" relative="1" as="geometry">
            <mxPoint x="3450" y="967.89" as="sourcePoint" />
            <mxPoint x="3500" y="917.89" as="targetPoint" />
          </mxGeometry>
        </mxCell>
        <mxCell id="yQK2qfJtW_lse_zrFERw-31" value="" style="endArrow=none;html=1;rounded=0;exitX=1;exitY=0.5;exitDx=0;exitDy=0;entryX=0.5;entryY=0;entryDx=0;entryDy=0;" parent="1" source="yQK2qfJtW_lse_zrFERw-26" target="yQK2qfJtW_lse_zrFERw-29" edge="1">
          <mxGeometry width="50" height="50" relative="1" as="geometry">
            <mxPoint x="3770" y="950" as="sourcePoint" />
            <mxPoint x="3820" y="900" as="targetPoint" />
          </mxGeometry>
        </mxCell>
        <mxCell id="YlkCHHWBlgFnMPXk_ph4-31" value="" style="endArrow=none;html=1;rounded=0;exitX=0.25;exitY=0;exitDx=0;exitDy=0;entryX=0.389;entryY=0.995;entryDx=0;entryDy=0;entryPerimeter=0;" parent="1" source="YlkCHHWBlgFnMPXk_ph4-21" target="YlkCHHWBlgFnMPXk_ph4-14" edge="1">
          <mxGeometry width="50" height="50" relative="1" as="geometry">
            <mxPoint x="1660" y="1462.58" as="sourcePoint" />
            <mxPoint x="1300" y="1172.58" as="targetPoint" />
          </mxGeometry>
        </mxCell>
        <mxCell id="yQK2qfJtW_lse_zrFERw-39" value="" style="endArrow=none;html=1;rounded=0;entryX=0.5;entryY=1;entryDx=0;entryDy=0;exitX=0.5;exitY=0;exitDx=0;exitDy=0;" parent="1" source="yQK2qfJtW_lse_zrFERw-37" target="yQK2qfJtW_lse_zrFERw-28" edge="1">
          <mxGeometry width="50" height="50" relative="1" as="geometry">
            <mxPoint x="3550" y="1220" as="sourcePoint" />
            <mxPoint x="3600" y="1170" as="targetPoint" />
          </mxGeometry>
        </mxCell>
        <mxCell id="yQK2qfJtW_lse_zrFERw-40" value="" style="endArrow=none;html=1;rounded=0;entryX=0.5;entryY=1;entryDx=0;entryDy=0;exitX=0.5;exitY=0;exitDx=0;exitDy=0;" parent="1" target="yQK2qfJtW_lse_zrFERw-37" edge="1">
          <mxGeometry width="50" height="50" relative="1" as="geometry">
            <mxPoint x="3630" y="1510" as="sourcePoint" />
            <mxPoint x="3610" y="1380" as="targetPoint" />
          </mxGeometry>
        </mxCell>
        <mxCell id="yQK2qfJtW_lse_zrFERw-41" value="&lt;font style=&quot;font-size: 14px;&quot; face=&quot;Georgia&quot;&gt;Filter&amp;nbsp;&lt;/font&gt;" style="text;html=1;strokeColor=none;fillColor=none;align=center;verticalAlign=middle;whiteSpace=wrap;rounded=0;" parent="1" vertex="1">
          <mxGeometry x="3550" y="1180" width="60" height="30" as="geometry" />
        </mxCell>
        <mxCell id="yQK2qfJtW_lse_zrFERw-42" value="" style="endArrow=open;startArrow=oval;endFill=0;startFill=0;endSize=8;html=1;rounded=0;" parent="1" edge="1">
          <mxGeometry width="160" relative="1" as="geometry">
            <mxPoint x="3280" y="1140" as="sourcePoint" />
            <mxPoint x="3260" y="1230" as="targetPoint" />
            <Array as="points" />
          </mxGeometry>
        </mxCell>
        <mxCell id="yQK2qfJtW_lse_zrFERw-43" value="" style="html=1;verticalAlign=bottom;startArrow=circle;startFill=1;endArrow=open;startSize=6;endSize=8;curved=0;rounded=0;" parent="1" edge="1">
          <mxGeometry width="80" relative="1" as="geometry">
            <mxPoint x="3660" y="1490" as="sourcePoint" />
            <mxPoint x="3650" y="1350" as="targetPoint" />
          </mxGeometry>
        </mxCell>
        <mxCell id="YlkCHHWBlgFnMPXk_ph4-41" value="Fetching Complaints" style="rounded=0;whiteSpace=wrap;html=1;" parent="1" vertex="1">
          <mxGeometry x="1740" y="1312.58" width="120" height="60" as="geometry" />
        </mxCell>
        <mxCell id="yQK2qfJtW_lse_zrFERw-44" value="&lt;font style=&quot;font-size: 14px;&quot; face=&quot;Georgia&quot;&gt;Result of&amp;nbsp;&lt;br&gt;Successful Query&lt;/font&gt;" style="text;html=1;strokeColor=none;fillColor=none;align=center;verticalAlign=middle;whiteSpace=wrap;rounded=0;" parent="1" vertex="1">
          <mxGeometry x="3660" y="1399" width="60" height="30" as="geometry" />
        </mxCell>
        <mxCell id="yQK2qfJtW_lse_zrFERw-45" value="" style="endArrow=open;startArrow=oval;endFill=0;startFill=0;endSize=8;html=1;rounded=0;" parent="1" edge="1">
          <mxGeometry width="160" relative="1" as="geometry">
            <mxPoint x="3640" y="1230" as="sourcePoint" />
            <mxPoint x="3640" y="1140" as="targetPoint" />
            <Array as="points" />
          </mxGeometry>
        </mxCell>
        <mxCell id="YlkCHHWBlgFnMPXk_ph4-44" value="" style="endArrow=none;html=1;rounded=0;exitX=0.5;exitY=0;exitDx=0;exitDy=0;entryX=0.5;entryY=1;entryDx=0;entryDy=0;" parent="1" source="YlkCHHWBlgFnMPXk_ph4-41" edge="1">
          <mxGeometry width="50" height="50" relative="1" as="geometry">
            <mxPoint x="1600" y="1442.58" as="sourcePoint" />
            <mxPoint x="1880" y="1172.58" as="targetPoint" />
          </mxGeometry>
        </mxCell>
        <mxCell id="yQK2qfJtW_lse_zrFERw-46" value="&lt;font face=&quot;Georgia&quot;&gt;&lt;span style=&quot;font-size: 14px;&quot;&gt;Complaint ID&lt;/span&gt;&lt;/font&gt;" style="text;html=1;strokeColor=none;fillColor=none;align=center;verticalAlign=middle;whiteSpace=wrap;rounded=0;" parent="1" vertex="1">
          <mxGeometry x="3650" y="1180" width="60" height="30" as="geometry" />
        </mxCell>
        <mxCell id="yQK2qfJtW_lse_zrFERw-47" value="&lt;font style=&quot;font-size: 14px;&quot; face=&quot;Georgia&quot;&gt;Transfer to Concerned Authority&lt;/font&gt;" style="rounded=0;whiteSpace=wrap;html=1;" parent="1" vertex="1">
          <mxGeometry x="3880" y="1320" width="120" height="60" as="geometry" />
        </mxCell>
        <mxCell id="YlkCHHWBlgFnMPXk_ph4-45" value="" style="html=1;verticalAlign=bottom;startArrow=circle;startFill=1;endArrow=open;startSize=6;endSize=8;curved=0;rounded=0;" parent="1" edge="1">
          <mxGeometry width="80" relative="1" as="geometry">
            <mxPoint x="480" y="1220" as="sourcePoint" />
            <mxPoint x="470" y="1080" as="targetPoint" />
          </mxGeometry>
        </mxCell>
        <mxCell id="yQK2qfJtW_lse_zrFERw-48" value="" style="endArrow=none;html=1;rounded=0;exitX=0.5;exitY=0;exitDx=0;exitDy=0;entryX=1;entryY=0.617;entryDx=0;entryDy=0;entryPerimeter=0;" parent="1" source="yQK2qfJtW_lse_zrFERw-47" target="yQK2qfJtW_lse_zrFERw-28" edge="1">
          <mxGeometry width="50" height="50" relative="1" as="geometry">
            <mxPoint x="3720" y="1170" as="sourcePoint" />
            <mxPoint x="3770" y="1120" as="targetPoint" />
          </mxGeometry>
        </mxCell>
        <mxCell id="yQK2qfJtW_lse_zrFERw-50" value="" style="endArrow=open;startArrow=oval;endFill=0;startFill=0;endSize=8;html=1;rounded=0;" parent="1" edge="1">
          <mxGeometry width="160" relative="1" as="geometry">
            <mxPoint x="3770" y="1205" as="sourcePoint" />
            <mxPoint x="3830" y="1270" as="targetPoint" />
            <Array as="points" />
          </mxGeometry>
        </mxCell>
        <mxCell id="yQK2qfJtW_lse_zrFERw-49" value="&lt;font face=&quot;Georgia&quot;&gt;&lt;span style=&quot;font-size: 14px;&quot;&gt;Complaint ID&lt;/span&gt;&lt;/font&gt;" style="text;html=1;strokeColor=none;fillColor=none;align=center;verticalAlign=middle;whiteSpace=wrap;rounded=0;" parent="1" vertex="1">
          <mxGeometry x="3750" y="1250" width="60" height="30" as="geometry" />
        </mxCell>
        <mxCell id="yQK2qfJtW_lse_zrFERw-51" value="" style="html=1;verticalAlign=bottom;startArrow=circle;startFill=1;endArrow=open;startSize=6;endSize=8;curved=0;rounded=0;" parent="1" edge="1">
          <mxGeometry width="80" relative="1" as="geometry">
            <mxPoint x="3880" y="1250" as="sourcePoint" />
            <mxPoint x="3800" y="1177.5" as="targetPoint" />
          </mxGeometry>
        </mxCell>
        <mxCell id="yQK2qfJtW_lse_zrFERw-52" value="&lt;font face=&quot;Georgia&quot;&gt;&lt;span style=&quot;font-size: 14px;&quot;&gt;Reply sent back&lt;/span&gt;&lt;/font&gt;" style="text;html=1;strokeColor=none;fillColor=none;align=center;verticalAlign=middle;whiteSpace=wrap;rounded=0;" parent="1" vertex="1">
          <mxGeometry x="3830" y="1190" width="70" height="30" as="geometry" />
        </mxCell>
        <mxCell id="yQK2qfJtW_lse_zrFERw-53" value="&lt;font face=&quot;Georgia&quot;&gt;Update Status in Complaint D.B&lt;/font&gt;" style="shape=process;whiteSpace=wrap;html=1;backgroundOutline=1;" parent="1" vertex="1">
          <mxGeometry x="3900" y="1070" width="120" height="60" as="geometry" />
        </mxCell>
        <mxCell id="yQK2qfJtW_lse_zrFERw-54" value="" style="endArrow=none;html=1;rounded=0;entryX=0;entryY=0.5;entryDx=0;entryDy=0;exitX=1;exitY=0.5;exitDx=0;exitDy=0;" parent="1" source="yQK2qfJtW_lse_zrFERw-28" target="yQK2qfJtW_lse_zrFERw-53" edge="1">
          <mxGeometry width="50" height="50" relative="1" as="geometry">
            <mxPoint x="3720" y="1040" as="sourcePoint" />
            <mxPoint x="3770" y="990" as="targetPoint" />
          </mxGeometry>
        </mxCell>
        <mxCell id="yQK2qfJtW_lse_zrFERw-55" value="" style="endArrow=open;startArrow=oval;endFill=0;startFill=0;endSize=8;html=1;rounded=0;" parent="1" edge="1">
          <mxGeometry width="160" relative="1" as="geometry">
            <mxPoint x="3710" y="1080" as="sourcePoint" />
            <mxPoint x="3830" y="1080" as="targetPoint" />
            <Array as="points" />
          </mxGeometry>
        </mxCell>
        <mxCell id="yQK2qfJtW_lse_zrFERw-56" value="&lt;font face=&quot;Georgia&quot;&gt;&lt;span style=&quot;font-size: 14px;&quot;&gt;Complaint ID,Remarks&lt;/span&gt;&lt;/font&gt;" style="text;html=1;strokeColor=none;fillColor=none;align=center;verticalAlign=middle;whiteSpace=wrap;rounded=0;" parent="1" vertex="1">
          <mxGeometry x="3720" y="1050" width="100" height="30" as="geometry" />
        </mxCell>
        <mxCell id="yQK2qfJtW_lse_zrFERw-58" value="" style="html=1;verticalAlign=bottom;startArrow=circle;startFill=1;endArrow=open;startSize=6;endSize=8;curved=0;rounded=0;" parent="1" edge="1">
          <mxGeometry width="80" relative="1" as="geometry">
            <mxPoint x="3850" y="1110" as="sourcePoint" />
            <mxPoint x="3750" y="1110" as="targetPoint" />
          </mxGeometry>
        </mxCell>
        <mxCell id="yQK2qfJtW_lse_zrFERw-59" value="&lt;font face=&quot;Georgia&quot;&gt;&lt;span style=&quot;font-size: 14px;&quot;&gt;Successfully Updated&lt;/span&gt;&lt;/font&gt;" style="text;html=1;strokeColor=none;fillColor=none;align=center;verticalAlign=middle;whiteSpace=wrap;rounded=0;" parent="1" vertex="1">
          <mxGeometry x="3770" y="1120" width="70" height="30" as="geometry" />
        </mxCell>
        <mxCell id="yQK2qfJtW_lse_zrFERw-60" value="&lt;font style=&quot;font-size: 14px;&quot; face=&quot;Georgia&quot;&gt;Insert into Mess Meeting Records&lt;/font&gt;" style="shape=process;whiteSpace=wrap;html=1;backgroundOutline=1;" parent="1" vertex="1">
          <mxGeometry x="4310" y="1280" width="120" height="60" as="geometry" />
        </mxCell>
        <mxCell id="yQK2qfJtW_lse_zrFERw-61" value="" style="endArrow=open;startArrow=oval;endFill=0;startFill=0;endSize=8;html=1;rounded=0;" parent="1" edge="1">
          <mxGeometry width="160" relative="1" as="geometry">
            <mxPoint x="4340" y="1140" as="sourcePoint" />
            <mxPoint x="4340" y="1250" as="targetPoint" />
            <Array as="points" />
          </mxGeometry>
        </mxCell>
        <mxCell id="yQK2qfJtW_lse_zrFERw-62" value="&lt;font face=&quot;Georgia&quot;&gt;&lt;span style=&quot;font-size: 14px;&quot;&gt;Time , Venue&lt;/span&gt;&lt;/font&gt;" style="text;html=1;align=center;verticalAlign=middle;whiteSpace=wrap;rounded=0;rotation=90;" parent="1" vertex="1">
          <mxGeometry x="4188.19" y="1185.16" width="241.81" height="24.84" as="geometry" />
        </mxCell>
        <mxCell id="yQK2qfJtW_lse_zrFERw-63" value="" style="endArrow=none;html=1;rounded=0;entryX=0.5;entryY=1;entryDx=0;entryDy=0;exitX=0.583;exitY=-0.067;exitDx=0;exitDy=0;exitPerimeter=0;" parent="1" source="yQK2qfJtW_lse_zrFERw-60" target="yQK2qfJtW_lse_zrFERw-29" edge="1">
          <mxGeometry width="50" height="50" relative="1" as="geometry">
            <mxPoint x="4350" y="1240" as="sourcePoint" />
            <mxPoint x="4400" y="1190" as="targetPoint" />
          </mxGeometry>
        </mxCell>
        <mxCell id="yQK2qfJtW_lse_zrFERw-64" value="&lt;font face=&quot;Georgia&quot;&gt;&lt;span style=&quot;font-size: 14px;&quot;&gt;Sent email to Mess committee and Manager&lt;/span&gt;&lt;/font&gt;" style="rounded=0;whiteSpace=wrap;html=1;" parent="1" vertex="1">
          <mxGeometry x="4640" y="1060" width="120" height="60" as="geometry" />
        </mxCell>
        <mxCell id="yQK2qfJtW_lse_zrFERw-65" value="" style="endArrow=none;html=1;rounded=0;entryX=-0.033;entryY=0.383;entryDx=0;entryDy=0;entryPerimeter=0;exitX=0.992;exitY=0.4;exitDx=0;exitDy=0;exitPerimeter=0;" parent="1" source="yQK2qfJtW_lse_zrFERw-29" target="yQK2qfJtW_lse_zrFERw-64" edge="1">
          <mxGeometry width="50" height="50" relative="1" as="geometry">
            <mxPoint x="4470" y="1080" as="sourcePoint" />
            <mxPoint x="4520" y="1030" as="targetPoint" />
          </mxGeometry>
        </mxCell>
        <mxCell id="yQK2qfJtW_lse_zrFERw-66" value="" style="html=1;verticalAlign=bottom;startArrow=circle;startFill=1;endArrow=open;startSize=6;endSize=8;curved=0;rounded=0;" parent="1" edge="1">
          <mxGeometry width="80" relative="1" as="geometry">
            <mxPoint x="4390" y="1250" as="sourcePoint" />
            <mxPoint x="4390" y="1140" as="targetPoint" />
          </mxGeometry>
        </mxCell>
        <mxCell id="yQK2qfJtW_lse_zrFERw-67" value="&lt;font face=&quot;Georgia&quot;&gt;&lt;span style=&quot;font-size: 14px;&quot;&gt;Meet fixed&lt;br&gt;&lt;/span&gt;&lt;/font&gt;" style="text;html=1;align=center;verticalAlign=middle;whiteSpace=wrap;rounded=0;rotation=0;" parent="1" vertex="1">
          <mxGeometry x="4310" y="1180" width="241.81" height="24.84" as="geometry" />
        </mxCell>
        <mxCell id="yQK2qfJtW_lse_zrFERw-68" value="&lt;font face=&quot;Georgia&quot;&gt;&lt;span style=&quot;font-size: 14px;&quot;&gt;Fixed time,venue&lt;br&gt;&lt;/span&gt;&lt;/font&gt;" style="text;html=1;align=center;verticalAlign=middle;whiteSpace=wrap;rounded=0;rotation=0;" parent="1" vertex="1">
          <mxGeometry x="4430" y="1020" width="241.81" height="24.84" as="geometry" />
        </mxCell>
        <mxCell id="yQK2qfJtW_lse_zrFERw-69" value="" style="endArrow=open;startArrow=oval;endFill=0;startFill=0;endSize=8;html=1;rounded=0;" parent="1" edge="1">
          <mxGeometry width="160" relative="1" as="geometry">
            <mxPoint x="4500" y="1050" as="sourcePoint" />
            <mxPoint x="4590" y="1050" as="targetPoint" />
            <Array as="points">
              <mxPoint x="4550" y="1050" />
            </Array>
          </mxGeometry>
        </mxCell>
        <mxCell id="yQK2qfJtW_lse_zrFERw-71" value="" style="endArrow=none;html=1;rounded=0;entryX=0.417;entryY=1.017;entryDx=0;entryDy=0;entryPerimeter=0;exitX=0.5;exitY=0;exitDx=0;exitDy=0;" parent="1" source="yQK2qfJtW_lse_zrFERw-75" target="yQK2qfJtW_lse_zrFERw-27" edge="1">
          <mxGeometry width="50" height="50" relative="1" as="geometry">
            <mxPoint x="3300" y="1250" as="sourcePoint" />
            <mxPoint x="3290" y="1204.84" as="targetPoint" />
          </mxGeometry>
        </mxCell>
        <mxCell id="yQK2qfJtW_lse_zrFERw-72" value="" style="endArrow=open;startArrow=oval;endFill=0;startFill=0;endSize=8;html=1;rounded=0;" parent="1" edge="1">
          <mxGeometry width="160" relative="1" as="geometry">
            <mxPoint x="3610" y="1160" as="sourcePoint" />
            <mxPoint x="3610" y="1250" as="targetPoint" />
            <Array as="points" />
          </mxGeometry>
        </mxCell>
        <mxCell id="yQK2qfJtW_lse_zrFERw-74" value="&lt;font style=&quot;font-size: 14px;&quot; face=&quot;Georgia&quot;&gt;Approved Menu&lt;/font&gt;" style="text;html=1;strokeColor=none;fillColor=none;align=center;verticalAlign=middle;whiteSpace=wrap;rounded=0;" parent="1" vertex="1">
          <mxGeometry x="3190" y="1177.42" width="60" height="30" as="geometry" />
        </mxCell>
        <mxCell id="yQK2qfJtW_lse_zrFERw-75" value="&lt;font face=&quot;Georgia&quot;&gt;Write approved menu in Menu D.B&lt;/font&gt;" style="shape=process;whiteSpace=wrap;html=1;backgroundOutline=1;" parent="1" vertex="1">
          <mxGeometry x="3230" y="1280.0000000000002" width="120" height="60" as="geometry" />
        </mxCell>
        <mxCell id="yQK2qfJtW_lse_zrFERw-79" value="" style="html=1;verticalAlign=bottom;startArrow=circle;startFill=1;endArrow=open;startSize=6;endSize=8;curved=0;rounded=0;" parent="1" edge="1">
          <mxGeometry width="80" relative="1" as="geometry">
            <mxPoint x="3320" y="1260" as="sourcePoint" />
            <mxPoint x="3350" y="1125" as="targetPoint" />
          </mxGeometry>
        </mxCell>
        <mxCell id="yQK2qfJtW_lse_zrFERw-80" value="&lt;font style=&quot;font-size: 14px;&quot; face=&quot;Georgia&quot;&gt;Updated Menu&lt;/font&gt;" style="text;html=1;strokeColor=none;fillColor=none;align=center;verticalAlign=middle;whiteSpace=wrap;rounded=0;" parent="1" vertex="1">
          <mxGeometry x="3370" y="1185.16" width="60" height="30" as="geometry" />
        </mxCell>
        <mxCell id="yQK2qfJtW_lse_zrFERw-84" value="" style="shape=requiredInterface;html=1;verticalLabelPosition=bottom;sketch=0;rotation=90;" parent="1" vertex="1">
          <mxGeometry x="1553.03" y="809.84" width="76.97" height="162.74" as="geometry" />
        </mxCell>
        <mxCell id="yQK2qfJtW_lse_zrFERw-87" value="" style="triangle;whiteSpace=wrap;html=1;rotation=-90;" parent="1" vertex="1">
          <mxGeometry x="1660" y="832.58" width="30" height="30" as="geometry" />
        </mxCell>
        <mxCell id="yQK2qfJtW_lse_zrFERw-94" value="" style="endArrow=none;html=1;rounded=0;entryX=0.392;entryY=1.033;entryDx=0;entryDy=0;entryPerimeter=0;exitX=0.425;exitY=-0.067;exitDx=0;exitDy=0;exitPerimeter=0;" parent="1" target="YlkCHHWBlgFnMPXk_ph4-41" edge="1">
          <mxGeometry width="50" height="50" relative="1" as="geometry">
            <mxPoint x="1741" y="1517.56" as="sourcePoint" />
            <mxPoint x="1750" y="1472.58" as="targetPoint" />
          </mxGeometry>
        </mxCell>
        <mxCell id="yQK2qfJtW_lse_zrFERw-95" value="" style="endArrow=open;startArrow=oval;endFill=0;startFill=0;endSize=8;html=1;rounded=0;" parent="1" edge="1">
          <mxGeometry width="160" relative="1" as="geometry">
            <mxPoint x="1840" y="1292.58" as="sourcePoint" />
            <mxPoint x="1890" y="1192.8899999999999" as="targetPoint" />
            <Array as="points" />
          </mxGeometry>
        </mxCell>
        <mxCell id="yQK2qfJtW_lse_zrFERw-97" value="&lt;font face=&quot;Georgia&quot;&gt;&lt;span style=&quot;font-size: 14px;&quot;&gt;Successful Fetch&lt;/span&gt;&lt;/font&gt;" style="text;html=1;align=center;verticalAlign=middle;whiteSpace=wrap;rounded=0;rotation=0;" parent="1" vertex="1">
          <mxGeometry x="1730" y="1450" width="220" height="20" as="geometry" />
        </mxCell>
        <mxCell id="yQK2qfJtW_lse_zrFERw-98" value="" style="html=1;verticalAlign=bottom;startArrow=circle;startFill=1;endArrow=open;startSize=6;endSize=8;curved=0;rounded=0;" parent="1" edge="1">
          <mxGeometry width="80" relative="1" as="geometry">
            <mxPoint x="1760" y="1512.58" as="sourcePoint" />
            <mxPoint x="1800" y="1392.58" as="targetPoint" />
          </mxGeometry>
        </mxCell>
        <mxCell id="yQK2qfJtW_lse_zrFERw-99" value="&lt;font face=&quot;Georgia&quot;&gt;&lt;span style=&quot;font-size: 14px;&quot;&gt;Complaint ID,Severity,Remarks,Status&lt;/span&gt;&lt;/font&gt;" style="text;html=1;align=center;verticalAlign=middle;whiteSpace=wrap;rounded=0;rotation=0;" parent="1" vertex="1">
          <mxGeometry x="1980" y="1282.58" width="220" height="20" as="geometry" />
        </mxCell>
        <mxCell id="yQK2qfJtW_lse_zrFERw-100" value="Handling Severity and Status" style="rounded=0;whiteSpace=wrap;html=1;" parent="1" vertex="1">
          <mxGeometry x="2190" y="1327.4199999999998" width="150" height="60" as="geometry" />
        </mxCell>
        <mxCell id="yQK2qfJtW_lse_zrFERw-101" value="&lt;font face=&quot;Georgia&quot;&gt;&lt;span style=&quot;font-size: 14px;&quot;&gt;Query of unassigned/new complaints&lt;/span&gt;&lt;/font&gt;" style="text;html=1;align=center;verticalAlign=middle;whiteSpace=wrap;rounded=0;rotation=0;" parent="1" vertex="1">
          <mxGeometry x="1568.19" y="1230.47" width="241.81" height="22.11" as="geometry" />
        </mxCell>
        <mxCell id="yQK2qfJtW_lse_zrFERw-103" value="" style="endArrow=open;startArrow=oval;endFill=0;startFill=0;endSize=8;html=1;rounded=0;" parent="1" edge="1">
          <mxGeometry width="160" relative="1" as="geometry">
            <mxPoint x="1830" y="1202.58" as="sourcePoint" />
            <mxPoint x="1790" y="1292.58" as="targetPoint" />
            <Array as="points" />
          </mxGeometry>
        </mxCell>
        <mxCell id="yQK2qfJtW_lse_zrFERw-104" value="" style="endArrow=open;startArrow=oval;endFill=0;startFill=0;endSize=8;html=1;rounded=0;" parent="1" edge="1">
          <mxGeometry width="160" relative="1" as="geometry">
            <mxPoint x="2230" y="1412.58" as="sourcePoint" />
            <mxPoint x="2230" y="1512.58" as="targetPoint" />
            <Array as="points" />
          </mxGeometry>
        </mxCell>
        <mxCell id="yQK2qfJtW_lse_zrFERw-105" value="" style="endArrow=none;html=1;rounded=0;entryX=0.558;entryY=-0.083;entryDx=0;entryDy=0;entryPerimeter=0;exitX=1;exitY=0.75;exitDx=0;exitDy=0;" parent="1" source="YlkCHHWBlgFnMPXk_ph4-15" target="yQK2qfJtW_lse_zrFERw-100" edge="1">
          <mxGeometry width="50" height="50" relative="1" as="geometry">
            <mxPoint x="1970" y="1247.74" as="sourcePoint" />
            <mxPoint x="2020" y="1197.74" as="targetPoint" />
          </mxGeometry>
        </mxCell>
        <mxCell id="yQK2qfJtW_lse_zrFERw-106" value="&lt;font face=&quot;Georgia&quot;&gt;&lt;span style=&quot;font-size: 14px;&quot;&gt;Complaint ID&lt;/span&gt;&lt;/font&gt;" style="text;html=1;align=center;verticalAlign=middle;whiteSpace=wrap;rounded=0;rotation=0;" parent="1" vertex="1">
          <mxGeometry x="1790" y="1252.8899999999999" width="220" height="20" as="geometry" />
        </mxCell>
        <mxCell id="yQK2qfJtW_lse_zrFERw-107" value="&lt;font face=&quot;Georgia&quot;&gt;Update Complaint D.B&lt;br&gt;&lt;/font&gt;" style="shape=process;whiteSpace=wrap;html=1;backgroundOutline=1;" parent="1" vertex="1">
          <mxGeometry x="2205" y="1547.4199999999998" width="120" height="60" as="geometry" />
        </mxCell>
        <mxCell id="yQK2qfJtW_lse_zrFERw-108" value="" style="endArrow=none;html=1;rounded=0;entryX=0.5;entryY=1;entryDx=0;entryDy=0;exitX=0.5;exitY=0;exitDx=0;exitDy=0;" parent="1" source="yQK2qfJtW_lse_zrFERw-107" target="yQK2qfJtW_lse_zrFERw-100" edge="1">
          <mxGeometry width="50" height="50" relative="1" as="geometry">
            <mxPoint x="2240" y="1534.4199999999998" as="sourcePoint" />
            <mxPoint x="2290" y="1484.84" as="targetPoint" />
          </mxGeometry>
        </mxCell>
        <mxCell id="yQK2qfJtW_lse_zrFERw-109" value="" style="html=1;verticalAlign=bottom;startArrow=circle;startFill=1;endArrow=open;startSize=6;endSize=8;curved=0;rounded=0;" parent="1" edge="1">
          <mxGeometry width="80" relative="1" as="geometry">
            <mxPoint x="2290" y="1527.4199999999998" as="sourcePoint" />
            <mxPoint x="2290" y="1417.4199999999998" as="targetPoint" />
          </mxGeometry>
        </mxCell>
        <mxCell id="yQK2qfJtW_lse_zrFERw-110" value="&lt;font face=&quot;Georgia&quot;&gt;&lt;span style=&quot;font-size: 14px;&quot;&gt;Successful Updation&lt;/span&gt;&lt;/font&gt;" style="text;html=1;align=center;verticalAlign=middle;whiteSpace=wrap;rounded=0;rotation=0;" parent="1" vertex="1">
          <mxGeometry x="2260" y="1469.84" width="220" height="20" as="geometry" />
        </mxCell>
        <mxCell id="yQK2qfJtW_lse_zrFERw-113" value="" style="endArrow=open;startArrow=oval;endFill=0;startFill=0;endSize=8;html=1;rounded=0;" parent="1" edge="1">
          <mxGeometry width="160" relative="1" as="geometry">
            <mxPoint x="2000" y="1219.9999999999998" as="sourcePoint" />
            <mxPoint x="2150" y="1292.58" as="targetPoint" />
            <Array as="points" />
          </mxGeometry>
        </mxCell>
        <mxCell id="yQK2qfJtW_lse_zrFERw-114" value="&lt;font face=&quot;Georgia&quot;&gt;&lt;span style=&quot;font-size: 14px;&quot;&gt;Complaint ID,Severity,Remarks,Status&lt;/span&gt;&lt;/font&gt;" style="text;html=1;align=center;verticalAlign=middle;whiteSpace=wrap;rounded=0;rotation=0;" parent="1" vertex="1">
          <mxGeometry x="2030" y="1452.58" width="220" height="20" as="geometry" />
        </mxCell>
        <mxCell id="yQK2qfJtW_lse_zrFERw-117" value="&lt;span style=&quot;color: rgb(0, 0, 0); font-family: Georgia; font-size: 12px; font-style: normal; font-variant-ligatures: normal; font-variant-caps: normal; font-weight: 400; letter-spacing: normal; orphans: 2; text-align: center; text-indent: 0px; text-transform: none; widows: 2; word-spacing: 0px; -webkit-text-stroke-width: 0px; white-space: normal; background-color: rgb(255, 255, 255); text-decoration-thickness: initial; text-decoration-style: initial; text-decoration-color: initial; display: inline !important; float: none;&quot;&gt;Complaint Database&lt;/span&gt;" style="rounded=1;whiteSpace=wrap;html=1;" parent="1" vertex="1">
          <mxGeometry x="410" y="1282.58" width="120" height="60" as="geometry" />
        </mxCell>
        <mxCell id="yQK2qfJtW_lse_zrFERw-118" value="" style="endArrow=none;html=1;rounded=0;entryX=0.558;entryY=1;entryDx=0;entryDy=0;entryPerimeter=0;exitX=0.5;exitY=0;exitDx=0;exitDy=0;" parent="1" source="yQK2qfJtW_lse_zrFERw-117" target="yQK2qfJtW_lse_zrFERw-6" edge="1">
          <mxGeometry width="50" height="50" relative="1" as="geometry">
            <mxPoint x="460" y="1150" as="sourcePoint" />
            <mxPoint x="510" y="1100" as="targetPoint" />
          </mxGeometry>
        </mxCell>
        <mxCell id="yQK2qfJtW_lse_zrFERw-119" value="" style="endArrow=open;startArrow=oval;endFill=0;startFill=0;endSize=8;html=1;rounded=0;" parent="1" edge="1">
          <mxGeometry width="160" relative="1" as="geometry">
            <mxPoint x="430" y="1080" as="sourcePoint" />
            <mxPoint x="440" y="1220" as="targetPoint" />
            <Array as="points" />
          </mxGeometry>
        </mxCell>
        <mxCell id="yQK2qfJtW_lse_zrFERw-120" value="&lt;font face=&quot;Georgia&quot;&gt;&lt;span style=&quot;font-size: 14px;&quot;&gt;Complaint ID&lt;/span&gt;&lt;/font&gt;" style="text;html=1;align=center;verticalAlign=middle;whiteSpace=wrap;rounded=0;rotation=-1;" parent="1" vertex="1">
          <mxGeometry x="250" y="1145" width="241.81" height="20" as="geometry" />
        </mxCell>
        <mxCell id="yQK2qfJtW_lse_zrFERw-121" value="&lt;font face=&quot;Georgia&quot;&gt;&lt;span style=&quot;font-size: 14px;&quot;&gt;Complaint Info/Status&lt;/span&gt;&lt;/font&gt;" style="text;html=1;align=center;verticalAlign=middle;whiteSpace=wrap;rounded=0;rotation=-1;" parent="1" vertex="1">
          <mxGeometry x="430" y="1125" width="241.81" height="20" as="geometry" />
        </mxCell>
        <mxCell id="yQK2qfJtW_lse_zrFERw-122" value="" style="endArrow=open;startArrow=oval;endFill=0;startFill=0;endSize=8;html=1;rounded=0;" parent="1" edge="1">
          <mxGeometry width="160" relative="1" as="geometry">
            <mxPoint x="50" y="1090" as="sourcePoint" />
            <mxPoint x="40" y="1210" as="targetPoint" />
            <Array as="points" />
          </mxGeometry>
        </mxCell>
        <mxCell id="yQK2qfJtW_lse_zrFERw-124" value="" style="html=1;verticalAlign=bottom;startArrow=circle;startFill=1;endArrow=open;startSize=6;endSize=8;curved=0;rounded=0;" parent="1" edge="1">
          <mxGeometry width="80" relative="1" as="geometry">
            <mxPoint x="80" y="1215.16" as="sourcePoint" />
            <mxPoint x="90" y="1087.74" as="targetPoint" />
          </mxGeometry>
        </mxCell>
        <mxCell id="yQK2qfJtW_lse_zrFERw-125" value="&lt;font face=&quot;Georgia&quot;&gt;&lt;span style=&quot;font-size: 14px;&quot;&gt;User ID&lt;/span&gt;&lt;/font&gt;" style="text;html=1;align=center;verticalAlign=middle;whiteSpace=wrap;rounded=0;rotation=-1;" parent="1" vertex="1">
          <mxGeometry x="-131.81" y="1145" width="241.81" height="20" as="geometry" />
        </mxCell>
        <mxCell id="yQK2qfJtW_lse_zrFERw-126" value="&lt;font face=&quot;Georgia&quot;&gt;&lt;span style=&quot;font-size: 14px;&quot;&gt;Complaint Successfully Registered&lt;/span&gt;&lt;/font&gt;" style="text;html=1;align=center;verticalAlign=middle;whiteSpace=wrap;rounded=0;rotation=-1;" parent="1" vertex="1">
          <mxGeometry x="70" y="1172.58" width="241.81" height="20" as="geometry" />
        </mxCell>
        <mxCell id="yQK2qfJtW_lse_zrFERw-127" value="" style="endArrow=open;startArrow=oval;endFill=0;startFill=0;endSize=8;html=1;rounded=0;" parent="1" edge="1">
          <mxGeometry width="160" relative="1" as="geometry">
            <mxPoint x="100" y="1220" as="sourcePoint" />
            <mxPoint x="110" y="1090" as="targetPoint" />
            <Array as="points" />
          </mxGeometry>
        </mxCell>
        <mxCell id="yQK2qfJtW_lse_zrFERw-128" value="&lt;font face=&quot;Georgia&quot;&gt;&lt;span style=&quot;font-size: 14px;&quot;&gt;Unique Complaint ID&lt;/span&gt;&lt;/font&gt;" style="text;html=1;align=center;verticalAlign=middle;whiteSpace=wrap;rounded=0;rotation=-1;" parent="1" vertex="1">
          <mxGeometry x="50" y="1120" width="241.81" height="20" as="geometry" />
        </mxCell>
        <mxCell id="yQK2qfJtW_lse_zrFERw-129" value="&lt;font face=&quot;Georgia&quot;&gt;&lt;span style=&quot;font-size: 14px;&quot;&gt;User ID&lt;/span&gt;&lt;/font&gt;" style="text;html=1;align=center;verticalAlign=middle;whiteSpace=wrap;rounded=0;rotation=-1;" parent="1" vertex="1">
          <mxGeometry x="-45.900000000000006" y="900" width="191.81" height="30" as="geometry" />
        </mxCell>
        <mxCell id="yQK2qfJtW_lse_zrFERw-130" value="" style="endArrow=open;startArrow=oval;endFill=0;startFill=0;endSize=8;html=1;rounded=0;" parent="1" edge="1">
          <mxGeometry width="160" relative="1" as="geometry">
            <mxPoint x="90" y="862.58" as="sourcePoint" />
            <mxPoint x="60" y="952.58" as="targetPoint" />
            <Array as="points" />
          </mxGeometry>
        </mxCell>
        <mxCell id="yQK2qfJtW_lse_zrFERw-131" value="" style="endArrow=open;startArrow=oval;endFill=0;startFill=0;endSize=8;html=1;rounded=0;" parent="1" edge="1">
          <mxGeometry width="160" relative="1" as="geometry">
            <mxPoint x="-68.19" y="880" as="sourcePoint" />
            <mxPoint x="-170" y="930" as="targetPoint" />
            <Array as="points" />
          </mxGeometry>
        </mxCell>
        <mxCell id="yQK2qfJtW_lse_zrFERw-132" value="&lt;font face=&quot;Georgia&quot;&gt;&lt;span style=&quot;font-size: 14px;&quot;&gt;Print Request&lt;/span&gt;&lt;/font&gt;" style="text;html=1;align=center;verticalAlign=middle;whiteSpace=wrap;rounded=0;rotation=-25;" parent="1" vertex="1">
          <mxGeometry x="-220" y="865" width="191.81" height="30" as="geometry" />
        </mxCell>
        <mxCell id="yQK2qfJtW_lse_zrFERw-133" value="" style="html=1;verticalAlign=bottom;startArrow=circle;startFill=1;endArrow=open;startSize=6;endSize=8;curved=0;rounded=0;" parent="1" edge="1">
          <mxGeometry width="80" relative="1" as="geometry">
            <mxPoint x="-160" y="972.58" as="sourcePoint" />
            <mxPoint x="-80" y="922.58" as="targetPoint" />
          </mxGeometry>
        </mxCell>
        <mxCell id="yQK2qfJtW_lse_zrFERw-134" value="&lt;font face=&quot;Georgia&quot;&gt;&lt;span style=&quot;font-size: 14px;&quot;&gt;Print Complete&lt;/span&gt;&lt;/font&gt;" style="text;html=1;align=center;verticalAlign=middle;whiteSpace=wrap;rounded=0;rotation=-30;" parent="1" vertex="1">
          <mxGeometry x="-190" y="950" width="191.81" height="30" as="geometry" />
        </mxCell>
        <mxCell id="yQK2qfJtW_lse_zrFERw-135" value="" style="html=1;verticalAlign=bottom;startArrow=circle;startFill=1;endArrow=open;startSize=6;endSize=8;curved=0;rounded=0;" parent="1" edge="1">
          <mxGeometry width="80" relative="1" as="geometry">
            <mxPoint x="-1890" y="950" as="sourcePoint" />
            <mxPoint x="-1780" y="900" as="targetPoint" />
          </mxGeometry>
        </mxCell>
        <mxCell id="yQK2qfJtW_lse_zrFERw-136" value="&lt;font style=&quot;font-size: 14px;&quot; face=&quot;Georgia&quot;&gt;Details Valid&lt;/font&gt;" style="text;html=1;align=center;verticalAlign=middle;whiteSpace=wrap;rounded=0;rotation=-25;" parent="1" vertex="1">
          <mxGeometry x="-1890.0000000000002" y="938.24" width="130" height="31.76" as="geometry" />
        </mxCell>
        <mxCell id="yQK2qfJtW_lse_zrFERw-137" value="" style="endArrow=open;startArrow=oval;endFill=0;startFill=0;endSize=8;html=1;rounded=0;" parent="1" edge="1">
          <mxGeometry width="160" relative="1" as="geometry">
            <mxPoint x="-930" y="560" as="sourcePoint" />
            <mxPoint x="-970" y="700" as="targetPoint" />
            <Array as="points" />
          </mxGeometry>
        </mxCell>
        <mxCell id="yQK2qfJtW_lse_zrFERw-138" value="" style="html=1;verticalAlign=bottom;startArrow=circle;startFill=1;endArrow=open;startSize=6;endSize=8;curved=0;rounded=0;" parent="1" edge="1">
          <mxGeometry width="80" relative="1" as="geometry">
            <mxPoint x="-1400" y="710" as="sourcePoint" />
            <mxPoint x="-1220" y="630" as="targetPoint" />
          </mxGeometry>
        </mxCell>
        <mxCell id="yQK2qfJtW_lse_zrFERw-139" value="&lt;font style=&quot;font-size: 14px;&quot; face=&quot;Georgia&quot;&gt;Valid Login&lt;/font&gt;" style="text;html=1;align=center;verticalAlign=middle;whiteSpace=wrap;rounded=0;rotation=-25;" parent="1" vertex="1">
          <mxGeometry x="-1370.0000000000002" y="668.24" width="130" height="31.76" as="geometry" />
        </mxCell>
        <mxCell id="yQK2qfJtW_lse_zrFERw-140" value="" style="endArrow=open;startArrow=oval;endFill=0;startFill=0;endSize=8;html=1;rounded=0;" parent="1" edge="1">
          <mxGeometry width="160" relative="1" as="geometry">
            <mxPoint x="-1390" y="760" as="sourcePoint" />
            <mxPoint x="-1200" y="680" as="targetPoint" />
            <Array as="points" />
          </mxGeometry>
        </mxCell>
        <mxCell id="yQK2qfJtW_lse_zrFERw-141" value="&lt;font style=&quot;font-size: 14px;&quot; face=&quot;Georgia&quot;&gt;User ID&lt;/font&gt;" style="text;html=1;align=center;verticalAlign=middle;whiteSpace=wrap;rounded=0;rotation=-25;" parent="1" vertex="1">
          <mxGeometry x="-1350.0000000000002" y="718.24" width="130" height="31.76" as="geometry" />
        </mxCell>
        <mxCell id="yQK2qfJtW_lse_zrFERw-142" value="" style="html=1;verticalAlign=bottom;startArrow=circle;startFill=1;endArrow=open;startSize=6;endSize=8;curved=0;rounded=0;" parent="1" edge="1">
          <mxGeometry width="80" relative="1" as="geometry">
            <mxPoint x="-910" y="711.76" as="sourcePoint" />
            <mxPoint x="-880" y="580" as="targetPoint" />
          </mxGeometry>
        </mxCell>
        <mxCell id="yQK2qfJtW_lse_zrFERw-143" value="&lt;font style=&quot;font-size: 14px;&quot; face=&quot;Georgia&quot;&gt;New User Registered&lt;/font&gt;" style="text;html=1;align=center;verticalAlign=middle;whiteSpace=wrap;rounded=0;rotation=0;" parent="1" vertex="1">
          <mxGeometry x="-920.0000000000002" y="660" width="130" height="31.76" as="geometry" />
        </mxCell>
        <mxCell id="yQK2qfJtW_lse_zrFERw-145" value="" style="endArrow=open;startArrow=oval;endFill=0;startFill=0;endSize=8;html=1;rounded=0;" parent="1" edge="1">
          <mxGeometry width="160" relative="1" as="geometry">
            <mxPoint x="-780" y="620" as="sourcePoint" />
            <mxPoint x="-650" y="740" as="targetPoint" />
            <Array as="points" />
          </mxGeometry>
        </mxCell>
        <mxCell id="yQK2qfJtW_lse_zrFERw-146" value="&lt;font style=&quot;font-size: 14px;&quot; face=&quot;Georgia&quot;&gt;User ID&lt;/font&gt;" style="text;html=1;align=center;verticalAlign=middle;whiteSpace=wrap;rounded=0;rotation=40;" parent="1" vertex="1">
          <mxGeometry x="-790.0000000000002" y="680" width="130" height="31.76" as="geometry" />
        </mxCell>
        <mxCell id="yQK2qfJtW_lse_zrFERw-147" value="" style="endArrow=open;startArrow=oval;endFill=0;startFill=0;endSize=8;html=1;rounded=0;" parent="1" edge="1">
          <mxGeometry width="160" relative="1" as="geometry">
            <mxPoint x="-590" y="691.76" as="sourcePoint" />
            <mxPoint x="-710" y="591.76" as="targetPoint" />
            <Array as="points" />
          </mxGeometry>
        </mxCell>
        <mxCell id="yQK2qfJtW_lse_zrFERw-148" value="&lt;font style=&quot;font-size: 14px;&quot; face=&quot;Georgia&quot;&gt;Access Level&lt;/font&gt;" style="text;html=1;align=center;verticalAlign=middle;whiteSpace=wrap;rounded=0;rotation=40;" parent="1" vertex="1">
          <mxGeometry x="-690.0000000000002" y="610" width="130" height="31.76" as="geometry" />
        </mxCell>
        <mxCell id="yQK2qfJtW_lse_zrFERw-151" value="" style="html=1;verticalAlign=bottom;startArrow=circle;startFill=1;endArrow=open;startSize=6;endSize=8;curved=0;rounded=0;" parent="1" edge="1">
          <mxGeometry width="80" relative="1" as="geometry">
            <mxPoint x="270" y="115.88" as="sourcePoint" />
            <mxPoint x="450" y="50" as="targetPoint" />
          </mxGeometry>
        </mxCell>
        <mxCell id="yQK2qfJtW_lse_zrFERw-152" value="" style="endArrow=open;startArrow=oval;endFill=0;startFill=0;endSize=8;html=1;rounded=0;" parent="1" edge="1">
          <mxGeometry width="160" relative="1" as="geometry">
            <mxPoint x="-18.189999999999998" y="190" as="sourcePoint" />
            <mxPoint x="171.81" y="130" as="targetPoint" />
            <Array as="points" />
          </mxGeometry>
        </mxCell>
        <mxCell id="yQK2qfJtW_lse_zrFERw-153" value="&lt;font style=&quot;font-size: 14px;&quot; face=&quot;Georgia&quot;&gt;User ID, Access Level&lt;/font&gt;" style="text;html=1;align=center;verticalAlign=middle;whiteSpace=wrap;rounded=0;rotation=-15;" parent="1" vertex="1">
          <mxGeometry x="9.999999999999776" y="178.24" width="130" height="31.76" as="geometry" />
        </mxCell>
        <mxCell id="yQK2qfJtW_lse_zrFERw-154" value="&lt;font style=&quot;font-size: 14px;&quot; face=&quot;Georgia&quot;&gt;Valid Login&lt;/font&gt;" style="text;html=1;align=center;verticalAlign=middle;whiteSpace=wrap;rounded=0;rotation=-20;" parent="1" vertex="1">
          <mxGeometry x="299.9999999999998" y="90.00000000000001" width="130" height="31.76" as="geometry" />
        </mxCell>
        <mxCell id="yQK2qfJtW_lse_zrFERw-157" value="" style="shape=requiredInterface;html=1;verticalLabelPosition=bottom;sketch=0;rotation=90;" parent="1" vertex="1">
          <mxGeometry x="1873.03" y="1132.58" width="76.97" height="162.74" as="geometry" />
        </mxCell>
        <mxCell id="yQK2qfJtW_lse_zrFERw-158" value="" style="triangle;whiteSpace=wrap;html=1;rotation=-90;" parent="1" vertex="1">
          <mxGeometry x="1980" y="1142.58" width="30" height="30" as="geometry" />
        </mxCell>
        <mxCell id="yQK2qfJtW_lse_zrFERw-159" value="&lt;font style=&quot;font-size: 14px;&quot; face=&quot;Georgia&quot;&gt;&amp;nbsp;Unresolved complaints&lt;/font&gt;" style="text;html=1;align=center;verticalAlign=middle;whiteSpace=wrap;rounded=0;rotation=90;" parent="1" vertex="1">
          <mxGeometry x="3541.81" y="875.1600000000001" width="241.81" height="24.84" as="geometry" />
        </mxCell>
        <mxCell id="yQK2qfJtW_lse_zrFERw-160" value="" style="endArrow=open;startArrow=oval;endFill=0;startFill=0;endSize=8;html=1;rounded=0;" parent="1" edge="1">
          <mxGeometry width="160" relative="1" as="geometry">
            <mxPoint x="3930" y="1223.67" as="sourcePoint" />
            <mxPoint x="3870" y="1161.17" as="targetPoint" />
            <Array as="points" />
          </mxGeometry>
        </mxCell>
        <mxCell id="yQK2qfJtW_lse_zrFERw-161" value="&lt;font face=&quot;Georgia&quot;&gt;&lt;span style=&quot;font-size: 14px;&quot;&gt;Remarks,Actions&lt;/span&gt;&lt;/font&gt;" style="text;html=1;strokeColor=none;fillColor=none;align=center;verticalAlign=middle;whiteSpace=wrap;rounded=0;" parent="1" vertex="1">
          <mxGeometry x="3920" y="1180" width="70" height="30" as="geometry" />
        </mxCell>
        <mxCell id="-Q-sxYtovC9rOYYXACHP-1" value="&lt;font face=&quot;Georgia&quot;&gt;Search in Complaint D.B&lt;br&gt;&lt;/font&gt;" style="shape=process;whiteSpace=wrap;html=1;backgroundOutline=1;" vertex="1" parent="1">
          <mxGeometry x="1690" y="1520" width="120" height="60" as="geometry" />
        </mxCell>
        <mxCell id="-Q-sxYtovC9rOYYXACHP-2" value="&lt;font face=&quot;Georgia&quot;&gt;Search in Complaint D.B&lt;br&gt;&lt;/font&gt;" style="shape=process;whiteSpace=wrap;html=1;backgroundOutline=1;" vertex="1" parent="1">
          <mxGeometry x="3580" y="1512.58" width="120" height="60" as="geometry" />
        </mxCell>
      </root>
    </mxGraphModel>
  </diagram>
</mxfile>
